<?xml version="1.0" standalone="no"?>
<!DOCTYPE svg PUBLIC "-//W3C//DTD SVG 20010904//EN"
 "http://www.w3.org/TR/2001/REC-SVG-20010904/DTD/svg10.dtd">
<svg version="1.0" xmlns="http://www.w3.org/2000/svg"
 width="300.000000pt" height="300.000000pt" viewBox="0 0 300.000000 300.000000"
 preserveAspectRatio="xMidYMid meet">
<metadata>
Created by potrace 1.11, written by Peter Selinger 2001-2013
</metadata>
<g transform="translate(0.000000,300.000000) scale(0.100000,-0.100000)"
fill="#000000" stroke="none">
<path d="M1307 1946 c-43 -16 -117 -74 -145 -114 -11 -15 -31 -51 -46 -79
l-26 -53 38 20 c61 32 156 37 219 11 49 -19 53 -19 63 -3 10 15 11 15 7 -4 -4
-19 1 -22 47 -28 170 -20 203 -30 265 -82 17 -14 31 -23 31 -19 0 21 -45 87
-85 124 -92 85 -184 104 -344 71 -109 -22 -131 -18 -131 21 0 22 11 24 28 7 9
-9 24 1 66 40 65 62 88 72 169 73 50 1 57 2 34 9 -56 17 -151 20 -190 6z"/>
<path d="M1601 1887 c41 -23 91 -60 110 -81 19 -22 52 -57 74 -77 37 -35 51
-56 86 -134 l13 -30 4 34 c4 36 28 81 43 81 5 0 14 -11 19 -24 5 -13 13 -27
18 -30 6 -3 2 12 -9 33 -10 22 -19 45 -19 50 0 6 -6 14 -13 18 -7 4 -18 20
-24 35 -7 14 -27 33 -45 42 -136 62 -181 81 -242 102 -98 34 -102 30 -15 -19z"/>
<path d="M1294 1643 c-63 -32 -72 -46 -78 -128 -1 -23 -7 -49 -13 -59 -9 -17
-12 -16 -31 9 -26 32 -28 81 -8 130 14 32 13 34 -2 24 -33 -21 -75 -91 -80
-134 -4 -39 -1 -47 37 -88 54 -58 106 -73 178 -52 28 8 62 24 77 36 36 28 33
11 -9 -44 -40 -52 -91 -87 -128 -87 -35 0 -117 67 -157 129 -29 46 -33 59 -31
116 2 73 -12 92 -29 39 -15 -45 -32 -51 -66 -25 -15 12 -29 19 -31 17 -2 -2 9
-34 26 -70 17 -36 31 -68 31 -72 0 -4 10 -27 22 -52 16 -31 45 -62 97 -101
104 -79 124 -91 181 -106 52 -14 58 -14 273 6 75 6 140 9 144 6 3 -4 0 -13 -7
-22 -29 -35 0 -21 52 25 80 71 123 150 135 245 l4 40 -41 -59 c-32 -45 -38
-61 -30 -72 9 -10 6 -15 -15 -20 -14 -3 -28 -4 -32 -1 -3 3 0 36 6 72 15 85 2
175 -25 175 -8 0 -14 4 -14 8 0 5 -6 16 -13 26 -11 15 -11 6 -3 -52 7 -53 6
-77 -4 -101 -7 -17 -16 -31 -20 -31 -11 0 -19 49 -8 52 30 10 -74 126 -132
147 -25 8 -32 5 -60 -24 -18 -18 -30 -37 -27 -42 8 -12 -2 -25 -40 -51 -43
-31 -56 -28 -70 16 -14 44 -3 74 37 104 25 19 103 31 202 32 53 1 53 8 -4 37
-31 16 -64 21 -142 24 -93 3 -107 1 -152 -22z m41 -201 c14 -8 16 -11 5 -12
-21 0 -58 27 -71 53 -11 20 -9 19 17 -4 16 -15 38 -31 49 -37z m265 -45 c0
-42 -32 -116 -60 -142 -10 -9 -53 -30 -96 -48 -71 -29 -87 -31 -151 -27 -62 4
-76 9 -102 34 -34 33 -46 73 -13 43 10 -10 25 -17 34 -17 8 0 18 -3 22 -7 4
-4 27 -12 51 -19 38 -9 57 -8 127 11 46 12 93 28 106 36 34 21 57 77 57 141 0
44 3 54 13 46 6 -6 12 -29 12 -51z"/>
<path d="M762 1460 c0 -14 2 -19 5 -12 2 6 2 18 0 25 -3 6 -5 1 -5 -13z"/>
<path d="M1881 1444 c0 -11 3 -14 6 -6 3 7 2 16 -1 19 -3 4 -6 -2 -5 -13z"/>
<path d="M758 1408 c-4 -10 -4 -25 -1 -35 4 -9 2 -14 -3 -10 -6 3 -10 -11 -10
-36 0 -23 -3 -60 -6 -82 -5 -29 -2 -45 10 -59 16 -18 15 -18 -28 -11 -53 8
-122 40 -156 72 -24 22 -26 22 -49 7 -28 -18 -32 -39 -10 -48 8 -3 15 -12 15
-21 0 -9 6 -15 13 -14 30 4 38 -2 32 -21 -5 -17 -2 -20 20 -20 36 0 72 -20 55
-30 -16 -10 -5 -40 15 -40 18 0 55 -30 55 -45 0 -5 4 -16 9 -24 8 -12 12 -12
25 -2 9 7 21 9 28 5 7 -5 23 -7 36 -5 14 1 22 -3 22 -13 0 -8 7 -19 16 -24 15
-8 15 -10 0 -15 -21 -8 -21 -43 0 -51 12 -5 14 -10 5 -20 -6 -7 -8 -16 -4 -20
4 -4 6 -24 5 -44 -2 -28 0 -33 7 -22 6 8 11 38 11 65 0 58 9 95 21 95 5 0 9
-10 9 -22 1 -23 38 -58 68 -63 9 -1 16 -7 15 -13 -1 -6 27 -25 64 -42 36 -18
75 -41 86 -51 12 -10 29 -19 39 -19 10 0 18 -4 18 -9 0 -5 28 -14 62 -20 34
-6 64 -14 67 -18 10 -13 38 -9 58 10 28 25 47 23 33 -4 -10 -18 -9 -20 7 -17
12 2 19 14 21 38 2 19 1 32 -3 29 -3 -4 -27 1 -52 10 -41 15 -46 20 -46 46 1
58 3 61 47 74 25 7 47 19 50 28 3 8 10 12 14 9 5 -3 16 4 25 15 9 10 24 19 32
19 8 0 15 5 15 11 0 7 -7 8 -17 4 -50 -20 -81 -24 -137 -16 -76 11 -197 63
-256 111 -63 52 -88 63 -144 70 -47 5 -50 7 -59 40 -4 19 -25 53 -46 75 -58
62 -85 105 -91 149 -4 29 -7 36 -12 24z"/>
<path d="M445 1320 c-4 -6 7 -10 25 -10 18 0 29 4 25 10 -3 6 -15 10 -25 10
-10 0 -22 -4 -25 -10z"/>
<path d="M495 1280 c-3 -6 1 -7 9 -4 18 7 21 14 7 14 -6 0 -13 -4 -16 -10z"/>
<path d="M1883 930 c-18 -11 -33 -25 -33 -32 0 -7 5 -6 13 4 6 9 26 23 42 32
17 8 26 15 20 16 -5 0 -25 -9 -42 -20z"/>
<path d="M852 740 c0 -14 2 -19 5 -12 2 6 2 18 0 25 -3 6 -5 1 -5 -13z"/>
</g>
</svg>
