<?xml version="1.0" encoding="UTF-8" standalone="no"?>
<svg width="201px" height="41px" viewBox="0 0 201 41" version="1.1" xmlns="http://www.w3.org/2000/svg" xmlns:xlink="http://www.w3.org/1999/xlink" xmlns:sketch="http://www.bohemiancoding.com/sketch/ns">
    <title>flourish-center-bottom</title>
    <description>Created with Sketch (http://www.bohemiancoding.com/sketch)</description>
    <defs></defs>
    <g id="Center-Flourishes" stroke="none" stroke-width="1" fill="none" fill-rule="evenodd" sketch:type="MSPage">
        <path d="M200.476,34.741 L175.306,34.741 C169.156,34.41 158.436,32.836 153.926,26.059 L153.316,25.154 L152.816,26.119 C149.236,33.016 137.936,34.467 131.896,34.741 L107.926,34.741 C109.076,34.1 110.506,33.097 112.256,31.545 L117.036,27.124 C121.566,22.855 125.206,19.481 129.216,18.321 C129.216,18.327 129.236,18.375 129.236,18.375 C130.746,17.971 132.216,18.327 132.586,18.902 C132.856,19.332 132.486,19.939 132.126,20.374 C130.526,22.287 130.776,23.73 131.056,24.418 C131.486,25.468 132.546,26.146 133.946,26.274 C136.946,26.551 139.046,24.384 139.346,22.127 C139.626,20.11 138.466,17.495 134.336,16.766 C127.446,15.55 122.716,20.015 116.156,26.189 L111.406,30.585 C108.246,33.401 106.276,34.23 105.266,34.462 C104.656,33.127 103.336,32.129 101.736,31.854 L101.736,16.302 C104.406,16.929 106.016,20.797 103.636,23.317 C107.646,24.232 109.266,21.485 111.386,17.892 C113.496,14.3 115.326,14.581 117.506,15.921 C119.136,13.455 114.626,10.427 111.386,10.284 C108.136,10.145 104.546,11.905 104.546,11.905 C104.546,11.905 104.406,9.37 106.586,7.82 C105.246,4.229 100.986,0 100.986,0 C100.986,0 96.726,4.229 95.386,7.82 C97.576,9.37 97.436,11.905 97.436,11.905 C97.436,11.905 93.846,10.145 90.596,10.284 C87.356,10.427 82.854,13.455 84.466,15.921 C86.656,14.581 88.486,14.3 90.596,17.892 C92.716,21.485 94.336,24.232 98.346,23.317 C95.896,20.731 97.656,16.715 100.456,16.249 L100.456,31.806 C98.416,31.956 96.746,33.263 96.226,35.016 L96.066,34.537 C96.056,34.541 94.026,34.992 89.076,30.585 L84.316,26.189 C77.768,20.015 73.03,15.55 66.139,16.766 C62.01,17.495 60.86,20.11 61.131,22.127 C61.432,24.384 63.539,26.551 66.533,26.274 C67.936,26.146 68.989,25.468 69.422,24.418 C69.705,23.73 69.946,22.287 68.356,20.374 C67.992,19.939 67.621,19.332 67.895,18.902 C68.264,18.327 69.727,17.971 71.246,18.375 C71.246,18.375 71.258,18.327 71.262,18.321 C75.276,19.481 78.906,22.855 83.438,27.124 L88.226,31.545 C89.966,33.097 91.396,34.1 92.556,34.741 L68.58,34.741 C62.543,34.467 51.239,33.016 47.662,26.119 L47.158,25.154 L46.553,26.059 C42.035,32.836 31.313,34.41 25.172,34.741 L0,34.741 L0,36.025 L20.571,36.025 L20.569,36.075 C20.819,36.087 22.785,36.187 25.59,36.025 L68.533,36.025 C69.057,36.048 69.565,36.065 70.039,36.075 L70.043,36.025 L94.986,36.025 L94.986,35.725 C95.476,35.833 95.836,35.84 96.086,35.82 C96.076,35.927 96.056,36.028 96.056,36.138 C96.056,38.548 98.196,40.503 100.836,40.503 C103.486,40.503 105.636,38.548 105.636,36.138 C105.636,36.098 105.616,36.063 105.616,36.025 L130.436,36.025 L130.436,36.075 C130.916,36.065 131.416,36.048 131.946,36.025 L174.886,36.025 C177.696,36.187 179.656,36.087 179.906,36.075 L179.906,36.025 L200.476,36.025 L200.476,34.741" id="Fill-508" fill="#451E5D" sketch:type="MSShapeGroup" transform="translate(100.238000, 20.251500) rotate(-180.000000) translate(-100.238000, -20.251500) "></path>
    </g>
</svg>