<?xml version="1.0" encoding="UTF-8" standalone="no"?>
<svg width="92px" height="50px" viewBox="0 0 92 50" version="1.1" xmlns="http://www.w3.org/2000/svg" xmlns:xlink="http://www.w3.org/1999/xlink" xmlns:sketch="http://www.bohemiancoding.com/sketch/ns">
    <title>flourish-corner-top-left</title>
    <description>Created with Sketch (http://www.bohemiancoding.com/sketch)</description>
    <defs></defs>
    <g id="Corner-Flourishes" stroke="none" stroke-width="1" fill="none" fill-rule="evenodd" sketch:type="MSPage">
        <g id="Group" sketch:type="MSLayerGroup" fill="#451E5D">
            <path d="M2.338,0 C3.629,0 4.676,1.05 4.676,2.34 C4.676,3.63 3.629,4.68 2.338,4.68 C1.047,4.68 0,3.63 0,2.34 C0,1.05 1.047,0 2.338,0" id="Fill-325" sketch:type="MSShapeGroup"></path>
            <path d="M3.414,2.83 L91.128,2.83 C91.356,2.83 91.541,2.64 91.541,2.42 C91.541,2.19 91.356,2 91.128,2 L3.414,2 C3.185,2 3,2.19 3,2.42 C3,2.64 3.185,2.83 3.414,2.83" id="Fill-326" sketch:type="MSShapeGroup"></path>
            <path d="M26,2 L28.888,2 L28.888,6.95 L26,6.95 L26,2 Z" id="Fill-327" sketch:type="MSShapeGroup"></path>
            <path d="M69.269,0 C70.522,0 71.537,1.01 71.537,2.27 C71.537,3.52 70.522,4.53 69.269,4.53 C68.015,4.53 67,3.52 67,2.27 C67,1.01 68.015,0 69.269,0" id="Fill-328" sketch:type="MSShapeGroup"></path>
            <path d="M77.649,1 C78.561,1 79.298,1.74 79.298,2.65 C79.298,3.56 78.561,4.29 77.649,4.29 C76.736,4.29 76,3.56 76,2.65 C76,1.74 76.736,1 77.649,1" id="Fill-329" sketch:type="MSShapeGroup"></path>
            <path d="M3.46096614,33.3761479 C6.09296614,36.8861479 9.91796614,38.8061479 14.8309661,39.0861479 C18.1999661,39.2761479 21.2479661,38.1461479 23.6489661,35.8061479 C26.9199661,32.6261479 28.3129661,27.9461479 28.2259661,24.9461479 C28.1469661,22.2661479 26.7809661,18.6361479 23.9099661,16.5661479 C21.6649661,14.9561479 18.8849661,14.5761479 15.8719661,15.4861479 C12.3319661,16.5561479 11.1769661,19.9861479 11.2639661,22.5961479 C11.3529661,25.2761479 12.6369661,27.4261479 14.3859661,27.8361479 C14.6059661,27.8861479 14.8269661,27.7461479 14.8789661,27.5261479 C14.9299661,27.3061479 14.7919661,27.0861479 14.5689661,27.0261479 C13.2089661,26.7161479 12.1649661,24.8361479 12.0899661,22.5661479 C12.0069661,20.1361479 13.0209661,17.2161479 16.1079661,16.2761479 C18.8699661,15.4461479 21.4009661,15.7761479 23.4279661,17.2361479 C26.0709661,19.1361479 27.3279661,22.4861479 27.4009661,24.9661479 C27.4829661,27.7961479 26.1649661,32.2061479 23.0739661,35.2161479 C20.8119661,37.4161479 18.0549661,38.4361479 14.8789661,38.2561479 C10.2179661,37.9961479 6.59896614,36.1861479 4.12196614,32.8861479 C0.786966139,28.4361479 0.285966139,22.1561479 1.26896614,17.9061479 C4.46096614,4.73614791 16.4769661,2.83614791 16.5979661,2.81614791 C16.8249661,2.78614791 16.9809661,2.57614791 16.9479661,2.34614791 C16.9159661,2.12614791 16.7079661,1.96614791 16.4809661,2.00614791 C16.3549661,2.01614791 3.79196614,3.98614791 0.465966139,17.7161479 C-0.560033861,22.1561479 -0.0310338606,28.7261479 3.46096614,33.3761479" id="Fill-330" sketch:type="MSShapeGroup"></path>
            <path d="M4.26877993,25.174575 C5.16677993,26.114575 5.90877993,26.404575 6.48077993,26.404575 C6.75777993,26.404575 6.99277993,26.334575 7.18977993,26.244575 C7.36077993,26.164575 7.50377993,26.044575 7.64577993,25.914575 C7.66177993,25.894575 7.68677993,25.904575 7.70277993,25.884575 C7.70577993,25.874575 7.70777993,25.864575 7.71377993,25.864575 C8.30877993,25.274575 8.58777993,24.314575 8.50577993,23.534575 C8.39277993,22.454575 7.97577993,21.634575 7.44577993,21.454575 C7.21677993,21.384575 6.99077993,21.434575 6.83477993,21.594575 C6.69077993,21.744575 6.56277993,22.044575 6.78677993,22.594575 L6.92877993,22.944575 C7.35877993,23.974575 7.56577993,24.654575 7.07677993,25.314575 C7.00177993,25.374575 6.92877993,25.454575 6.84177993,25.494575 C6.72177993,25.554575 6.60077993,25.574575 6.47577993,25.574575 C5.91977993,25.574575 5.32477993,25.094575 4.88777993,24.634575 C0.789779932,19.464575 4.10977993,11.654575 4.14277993,11.574575 C4.23477993,11.374575 4.13877993,11.124575 3.92977993,11.034575 C3.72177993,10.944575 3.47677993,11.034575 3.38777993,11.254575 C3.24077993,11.584575 -0.165220068,19.584575 4.26877993,25.174575" id="Fill-331" sketch:type="MSShapeGroup"></path>
            <path d="M3.03309981,35.48 C3.96409981,36.81 5.00609981,37.96 6.01209981,39.08 C8.34909981,41.68 10.1960998,43.72 9.43409981,46.41 C9.02909981,47.84 8.00609981,48.2 7.09009981,48.2 C6.73409981,48.2 6.39109981,48.14 6.10709981,48.08 C5.77009981,48 5.34909981,47.83 4.98909981,47.53 C4.39309981,46.83 4.52409981,45.62 4.91409981,45.06 C5.20909981,44.64 5.55309981,44.38 5.83209981,44.17 C6.14009981,43.94 6.40609981,43.75 6.40809981,43.41 C6.40809981,43.08 6.14409981,42.88 6.05809981,42.82 C5.80609981,42.63 5.44009981,42.62 5.05609981,42.78 C4.36909981,43.07 3.60309981,43.92 3.44209981,45.16 C3.28509981,46.38 3.64009981,47.36 4.36109981,48.04 C4.41609981,48.1 4.43409981,48.19 4.49809981,48.25 C4.55109981,48.3 4.62309981,48.31 4.69109981,48.32 C5.04209981,48.57 5.43809981,48.77 5.91909981,48.88 C6.33309981,48.98 6.72609981,49.03 7.09509981,49.03 C8.65409981,49.03 9.79009981,48.18 10.2310998,46.63 C11.1120998,43.51 9.03209981,41.2 6.62509981,38.53 C5.63409981,37.43 4.61209981,36.29 3.70809981,35.01 C0.734099812,30.78 0.825099812,25.48 0.827099812,25.42 C0.833099812,25.2 0.651099812,25.01 0.425099812,25 C0.196099812,25 0.00709981244,25.18 0.00109981244,25.4 C-0.00290018756,25.63 -0.101900188,31.02 3.03309981,35.48" id="Fill-332" sketch:type="MSShapeGroup"></path>
            <path d="M2.10175776,30.6810526 C2.28875776,30.8910526 6.72075776,35.8710526 12.8057578,36.1810526 C17.4307578,36.4210526 18.8287578,34.5310526 19.2157578,33.7110526 C19.6527578,32.7810526 19.5297578,31.7410526 18.9037578,31.0610526 C18.0597578,30.1410526 17.0337578,30.3610526 16.3577578,30.8710526 C15.8037578,31.2810526 15.3747578,31.9910526 15.6697578,32.4810526 C15.7627578,32.6310526 15.9047578,32.7310526 16.0717578,32.7610526 C16.1027578,32.7610526 16.1317578,32.7710526 16.1627578,32.7710526 C16.4407578,32.7710526 16.6767578,32.5610526 16.9617578,32.3110526 C17.3797578,31.9510526 17.7477578,31.6610526 18.1407578,31.6610526 C18.2097578,31.6610526 18.2797578,31.6810526 18.3487578,31.7010526 C18.6877578,32.1410526 18.7447578,32.7710526 18.4677578,33.3610526 C17.8097578,34.7610526 15.7097578,35.5110526 12.8467578,35.3610526 C7.11575776,35.0610526 2.76475776,30.1910526 2.72275776,30.1410526 C2.57175776,29.9710526 2.31175776,29.9510526 2.14075776,30.1010526 C1.96875776,30.2510526 1.95275776,30.5110526 2.10175776,30.6810526" id="Fill-333" sketch:type="MSShapeGroup"></path>
            <path d="M11.4389173,22.2034537 C11.4389173,22.2034537 11.8519173,25.9134537 14.9439173,25.9134537 C14.5309173,23.2334537 15.3559173,21.9234537 17.3159173,22.0034537 C20.1009173,22.1034537 20.8209173,26.8434537 17.6259173,28.3934537 C13.9939173,30.1434537 9.5819173,25.1934537 11.4389173,22.2034537" id="Fill-334" sketch:type="MSShapeGroup"></path>
            <path d="M19.1829364,2 C19.1829364,2 9.88493639,5.26 9.07593639,10.04 C8.31893639,14.51 13.4089364,16.3 16.0199364,10.73 C13.4759364,10.8 12.0329364,9.63 14.0269364,7.02 C15.7959364,4.7 19.5279364,2.62 21.5879364,2.2 C20.0749364,2.2 19.1829364,2 19.1829364,2" id="Fill-335" sketch:type="MSShapeGroup"></path>
            <path d="M22.03,11.96 C22.6,11.96 23.06,11.52 23.06,10.98 C23.06,10.44 22.6,10 22.03,10 C21.461,10 21,10.44 21,10.98 C21,11.52 21.461,11.96 22.03,11.96" id="Fill-336" sketch:type="MSShapeGroup"></path>
            <path d="M25.496,15.89 C26.319,15.89 26.991,15.24 26.991,14.44 C26.991,13.65 26.319,13 25.496,13 C24.669,13 24,13.65 24,14.44 C24,15.24 24.669,15.89 25.496,15.89" id="Fill-337" sketch:type="MSShapeGroup"></path>
            <path d="M18.0274765,38.5369834 C18.1094765,38.7469834 18.3474765,38.8569834 18.5584765,38.7769834 C18.9554765,38.6269834 28.2754765,34.9969834 29.8504765,27.5469834 C30.4914765,24.5069834 30.1964765,21.5369834 29.9394765,18.9169834 C29.5664765,15.1269834 29.2944765,12.3969834 31.7864765,11.2369834 C32.9464765,10.6869834 33.9484765,10.6969834 34.6864765,11.2369834 C35.4744765,11.8269834 35.9114765,13.0269834 35.7494765,14.1469834 C35.7284765,14.3069834 35.6524765,14.4069834 35.6104765,14.5369834 C35.3594765,14.9869834 35.0184765,15.2069834 34.5704765,15.2069834 C34.2314765,15.2069834 33.8464765,15.1169834 33.4264765,15.0069834 L32.7454765,14.8769834 C32.4824765,14.8769834 32.2714765,15.0069834 32.1804765,15.2269834 C32.0674765,15.4869834 32.1554765,15.8069834 32.4114765,16.0769834 C32.7014765,16.3869834 33.2004765,16.6269834 33.8714765,16.6269834 C34.2214765,16.6269834 34.6144765,16.5669834 35.0544765,16.3969834 C35.5794765,16.2069834 35.9394765,15.7569834 36.2084765,15.2169834 C36.3284765,15.0469834 36.4444765,14.8569834 36.5354765,14.6069834 C36.5634765,14.5369834 36.5294765,14.4769834 36.5164765,14.3969834 C36.5254765,14.3469834 36.5584765,14.3169834 36.5664765,14.2669834 C36.7364765,13.0669834 36.3754765,11.4669834 35.1764765,10.5769834 C34.4844765,10.0669834 33.2704765,9.62698338 31.4374765,10.4869834 C28.4174765,11.8969834 28.7414765,15.1869834 29.1194765,19.0069834 C29.3704765,21.5569834 29.6574765,24.4669834 29.0414765,27.3769834 C27.5614765,34.3869834 18.3594765,37.9669834 18.2654765,38.0069834 C18.0534765,38.0869834 17.9454765,38.3269834 18.0274765,38.5369834" id="Fill-338" sketch:type="MSShapeGroup"></path>
            <path d="M11.1736636,38.6115484 C11.3216636,38.7115484 13.5676636,40.2415484 17.2916636,40.2415484 C19.5456636,40.2415484 22.3366636,39.6815484 25.5316636,37.9115484 C25.8626636,37.7315484 26.1386636,37.5215484 26.4536636,37.3415484 L26.4656636,37.3415484 C26.5406636,37.3415484 26.6156636,37.3215484 26.6806636,37.2815484 C26.7506636,37.2415484 33.4456636,33.1115484 36.6246636,30.5515484 C37.9186636,29.5115484 38.7616636,29.2415484 39.2866636,29.2415484 C39.5096636,29.2415484 39.6746636,29.2915484 39.7916636,29.3515484 C40.2316636,29.5615484 40.3866636,30.0615484 40.3866636,30.4415484 C40.3866636,31.1415484 40.8586636,31.7115484 41.5866636,31.8915484 C41.7306636,31.9315484 41.8836636,31.9515484 42.0436636,31.9515484 C42.7226636,31.9515484 43.4846636,31.6015484 43.9466636,30.7315484 C44.4996636,29.6915484 44.5216636,28.5015484 44.0036636,27.6015484 C43.5966636,26.9115484 42.6786636,26.0615484 40.6046636,26.0015484 C38.6626636,25.9415484 36.8856636,27.6315484 34.4236636,29.9715484 C32.1046636,32.1815484 29.2196636,34.9215484 25.1336636,37.1915484 C17.1256636,41.6415484 11.7026636,37.9715484 11.6486636,37.9315484 C11.4626636,37.8015484 11.2046636,37.8515484 11.0746636,38.0315484 C10.9446636,38.2215484 10.9886636,38.4815484 11.1736636,38.6115484" id="Fill-339" sketch:type="MSShapeGroup"></path>
            <path d="M21.0072374,39.0867268 C21.0512374,39.3067268 21.2692374,39.4567268 21.4902374,39.4167268 C21.7792374,39.3567268 28.6472374,37.9267268 34.8582374,27.9867268 C40.9532374,18.2367268 44.4432374,13.0867268 51.0742374,11.9867268 C54.1892374,11.4667268 57.0312374,12.1867268 59.0812374,14.0067268 C61.1352374,15.8267268 62.1852374,18.5467268 62.0402374,21.6667268 C61.5102374,25.9867268 58.1192374,27.8967268 54.9932374,27.8567268 C52.5402374,27.8267268 49.9412374,26.5367268 49.6642374,23.7067268 C49.4002374,21.0267268 50.3612374,19.2267268 52.2382374,18.8967268 C53.8272374,18.6167268 55.5212374,19.5367268 55.8642374,20.8567268 C55.9222374,21.0767268 56.1472374,21.2167268 56.3682374,21.1567268 C56.5902374,21.0967268 56.7202374,20.8767268 56.6642374,20.6567268 C56.2112374,18.9067268 54.1192374,17.7267268 52.0922374,18.0867268 C50.2812374,18.4067268 48.4762374,20.0767268 48.8412374,23.7867268 C49.1212374,26.6267268 51.6482374,28.6467268 54.9842374,28.6867268 C58.3652374,28.7167268 62.2722374,26.5667268 62.8602374,21.7367268 C63.0222374,18.3367268 61.8722374,15.3767268 59.6322374,13.3867268 C57.3912374,11.3967268 54.3032374,10.6167268 50.9382374,11.1767268 C43.9592374,12.3367268 40.3852374,17.5867268 34.1582374,27.5467268 C28.1532374,37.1567268 21.4002374,38.5867268 21.3332374,38.6067268 C21.1102374,38.6467268 20.9652374,38.8667268 21.0072374,39.0867268" id="Fill-340" sketch:type="MSShapeGroup"></path>
            <path d="M52.5162029,19.1294112 C52.5162029,19.1294112 54.0652029,20.1594112 52.0022029,22.4294112 C51.8982029,24.5894112 55.5082029,25.4194112 56.1262029,22.5294112 C56.7452029,19.6394112 53.2392029,18.6094112 52.5162029,19.1294112" id="Fill-341" sketch:type="MSShapeGroup"></path>
            <path d="M51.0081503,11.6884794 C51.0501503,11.9084794 51.2671503,12.0584794 51.4911503,12.0184794 C51.5571503,11.9984794 58.1421503,10.7784794 62.4671503,14.9984794 C65.6841503,18.1384794 68.5201503,18.6284794 70.1011503,18.0384794 C71.1121503,17.6584794 71.7421503,16.8284794 71.8251503,15.7684794 C71.9931503,13.6784794 70.6041503,12.2884794 69.2421503,11.8784794 C67.9851503,11.4884794 66.7951503,11.9184794 66.2101503,12.9484794 C65.5951503,14.0484794 66.2691503,15.2084794 67.0321503,15.8584794 C67.4101503,16.1884794 67.9331503,16.5084794 68.2971503,16.2284794 C68.4001503,16.1484794 68.6131503,15.9084794 68.3811503,15.4484794 L68.1071503,15.0584794 C67.8021503,14.6684794 67.2891503,14.0184794 67.3791503,13.4784794 C67.4231503,13.2184794 67.6021503,12.9884794 67.9281503,12.7784794 C67.9781503,12.7484794 67.9751503,12.6884794 68.0061503,12.6384794 C68.1181503,12.6184794 68.2261503,12.5584794 68.3411503,12.5584794 C68.5681503,12.5584794 68.7941503,12.5984794 69.0031503,12.6584794 C70.0581503,12.9884794 71.1341503,14.0684794 71.0041503,15.6984794 C70.9451503,16.4384794 70.5221503,16.9984794 69.8131503,17.2684794 C68.4681503,17.7684794 65.9851503,17.2784794 63.0421503,14.4084794 C58.4041503,9.87847937 51.6191503,11.1484794 51.3311503,11.2084794 C51.1091503,11.2484794 50.9631503,11.4684794 51.0081503,11.6884794" id="Fill-342" sketch:type="MSShapeGroup"></path>
            <path d="M49.3530211,11.7346465 L49.4120211,11.7346465 C49.5240211,11.7346465 49.6180211,11.6846465 49.6940211,11.6146465 C49.7340211,11.6246465 49.7620211,11.6546465 49.8050211,11.6646465 L49.8240211,11.6646465 C50.0350211,11.6646465 50.2140211,11.4846465 50.2370211,11.2746465 C50.2370211,11.2646465 50.3550211,10.4046465 52.8150211,10.4046465 C56.1420211,10.4046465 59.7330211,10.1846465 61.1420211,8.60464649 C61.6060211,8.08464649 61.7970211,7.46464649 61.7160211,6.74464649 C61.6320211,6.02464649 61.1910211,5.42464649 60.5360211,5.14464649 C59.9510211,4.90464649 59.3110211,4.96464649 58.8600211,5.31464649 C58.5740211,5.53464649 58.1220211,6.07464649 58.2850211,7.15464649 C58.2950211,7.23464649 58.2950211,7.33464649 58.1910211,7.46464649 C57.9490211,7.77464649 56.9330211,8.53464649 52.6710211,8.95464649 C49.2900211,9.29464649 49.0130211,11.1946465 49.0030211,11.2746465 C48.9760211,11.4946465 49.1330211,11.7046465 49.3530211,11.7346465" id="Fill-343" sketch:type="MSShapeGroup"></path>
            <path d="M31,2.22783802 C31,2.22783802 41.861,2.09783802 38.701,8.41783802 C43.375,10.617838 45.985,5.25783802 39.937,2.09783802 C37.188,1.81783802 31,2.22783802 31,2.22783802" id="Fill-344" sketch:type="MSShapeGroup"></path>
            <path d="M43,2 C43,2 48.775,4.06 50.565,5.71 C52.899,3.51 58.536,2 58.536,2 L43,2" id="Fill-345" sketch:type="MSShapeGroup"></path>
        </g>
    </g>
</svg>