<?xml version="1.0" encoding="UTF-8" standalone="no"?>
<svg width="94px" height="50px" viewBox="0 0 94 50" version="1.1" xmlns="http://www.w3.org/2000/svg" xmlns:xlink="http://www.w3.org/1999/xlink" xmlns:sketch="http://www.bohemiancoding.com/sketch/ns">
    <title>flourish-corner-bottom-left</title>
    <description>Created with Sketch (http://www.bohemiancoding.com/sketch)</description>
    <defs></defs>
    <g id="Corner-Flourishes" stroke="none" stroke-width="1" fill="none" fill-rule="evenodd" sketch:type="MSPage">
        <g id="Group" sketch:type="MSLayerGroup" transform="translate(47.176758, 24.761719) rotate(-180.000000) translate(-47.176758, -24.761719) translate(1.176758, 0.261719)" fill="#451E5D">
            <path d="M89.338,0 C88.047,0 87,1.05 87,2.34 C87,3.63 88.047,4.68 89.338,4.68 C90.629,4.68 91.675,3.63 91.675,2.34 C91.675,1.05 90.629,0 89.338,0" id="Fill-346" sketch:type="MSShapeGroup"></path>
            <path d="M88.127,2.83 L0.413,2.83 C0.187,2.83 0,2.64 0,2.42 C0,2.19 0.187,2 0.413,2 L88.127,2 C88.358,2 88.54,2.19 88.54,2.42 C88.54,2.64 88.358,2.83 88.127,2.83" id="Fill-347" sketch:type="MSShapeGroup"></path>
            <path d="M64,2 L66.887,2 L66.887,6.95 L64,6.95 L64,2 Z" id="Fill-348" sketch:type="MSShapeGroup"></path>
            <path d="M22.266,0 C21.013,0 20,1.01 20,2.26 C20,3.52 21.013,4.53 22.266,4.53 C23.521,4.53 24.535,3.52 24.535,2.26 C24.535,1.01 23.521,0 22.266,0" id="Fill-349" sketch:type="MSShapeGroup"></path>
            <path d="M14.648,1 C13.737,1 13,1.73 13,2.64 C13,3.55 13.737,4.29 14.648,4.29 C15.56,4.29 16.298,3.55 16.298,2.64 C16.298,1.73 15.56,1 14.648,1" id="Fill-350" sketch:type="MSShapeGroup"></path>
            <path d="M88.7688256,33.3761368 C86.1378256,36.8861368 82.3128256,38.8061368 77.3988256,39.0861368 C74.0278256,39.2761368 70.9818256,38.1461368 68.5818256,35.8061368 C65.3098256,32.6261368 63.9168256,27.9461368 64.0038256,24.9461368 C64.0828256,22.2661368 65.4478256,18.6361368 68.3188256,16.5661368 C70.5638256,14.9461368 73.3448256,14.5761368 76.3588256,15.4861368 C79.8998256,16.5561368 81.0518256,19.9861368 80.9658256,22.5861368 C80.8768256,25.2761368 79.5928256,27.4261368 77.8438256,27.8361368 C77.6248256,27.8861368 77.4038256,27.7461368 77.3508256,27.5261368 C77.2998256,27.3061368 77.4378256,27.0761368 77.6598256,27.0261368 C79.0218256,26.7161368 80.0648256,24.8361368 80.1388256,22.5661368 C80.2238256,20.1361368 79.2088256,17.2161368 76.1228256,16.2761368 C73.3588256,15.4461368 70.8298256,15.7761368 68.8018256,17.2361368 C66.1598256,19.1361368 64.9008256,22.4861368 64.8298256,24.9661368 C64.7458256,27.7961368 66.0658256,32.2061368 69.1588256,35.2161368 C71.4188256,37.4161368 74.1738256,38.4361368 77.3508256,38.2561368 C82.0118256,37.9961368 85.6308256,36.1861368 88.1098256,32.8861368 C91.4438256,28.4361368 91.9438256,22.1561368 90.9608256,17.9061368 C87.7708256,4.73613678 75.7538256,2.83613678 75.6298256,2.81613678 C75.4058256,2.78613678 75.2488256,2.57613678 75.2818256,2.35613678 C75.3138256,2.12613678 75.5238256,1.96613678 75.7498256,2.00613678 C75.8768256,2.01613678 88.4388256,3.98613678 91.7658256,17.7161368 C92.7888256,22.1561368 92.2608256,28.7261368 88.7688256,33.3761368" id="Fill-351" sketch:type="MSShapeGroup"></path>
            <path d="M88.2520362,25.1747515 C87.3530362,26.1147515 86.6120362,26.4047515 86.0400362,26.4047515 C85.7630362,26.4047515 85.5280362,26.3347515 85.3300362,26.2447515 C85.1600362,26.1647515 85.0160362,26.0447515 84.8750362,25.9147515 C84.8580362,25.8947515 84.8330362,25.9047515 84.8180362,25.8847515 C84.8120362,25.8747515 84.8120362,25.8647515 84.8060362,25.8647515 C84.2110362,25.2747515 83.9320362,24.3147515 84.0140362,23.5347515 C84.1270362,22.4547515 84.5440362,21.6347515 85.0740362,21.4547515 C85.3030362,21.3847515 85.5300362,21.4347515 85.6850362,21.5947515 C85.8300362,21.7447515 85.9580362,22.0447515 85.7340362,22.5947515 L85.5920362,22.9447515 C85.1620362,23.9747515 84.9550362,24.6547515 85.4430362,25.3147515 C85.5180362,25.3747515 85.5920362,25.4547515 85.6780362,25.4947515 C85.7970362,25.5547515 85.9200362,25.5747515 86.0440362,25.5747515 C86.6010362,25.5747515 87.1960362,25.0947515 87.6300362,24.6347515 C91.7300362,19.4647515 88.4090362,11.6547515 88.3760362,11.5747515 C88.2850362,11.3647515 88.3820362,11.1247515 88.5900362,11.0347515 C88.7990362,10.9447515 89.0430362,11.0347515 89.1330362,11.2447515 C89.2800362,11.5847515 92.6850362,19.5847515 88.2520362,25.1747515" id="Fill-352" sketch:type="MSShapeGroup"></path>
            <path d="M88.4048058,35.48 C87.4728058,36.81 86.4298058,37.96 85.4268058,39.08 C83.0898058,41.67 81.2418058,43.72 82.0028058,46.41 C82.4088058,47.84 83.4308058,48.2 84.3468058,48.2 C84.7038058,48.2 85.0468058,48.14 85.3278058,48.08 C85.6668058,48 86.0888058,47.83 86.4498058,47.53 C87.0458058,46.83 86.9148058,45.62 86.5218058,45.06 C86.2288058,44.64 85.8838058,44.38 85.6038058,44.17 C85.2968058,43.94 85.0318058,43.75 85.0288058,43.4 C85.0288058,43.08 85.2928058,42.88 85.3798058,42.82 C85.6318058,42.63 85.9968058,42.62 86.3818058,42.78 C87.0688058,43.07 87.8338058,43.92 87.9958058,45.16 C88.1498058,46.38 87.7968058,47.36 87.0758058,48.04 C87.0218058,48.1 87.0038058,48.19 86.9388058,48.25 C86.8858058,48.3 86.8128058,48.3 86.7448058,48.32 C86.3948058,48.57 85.9988058,48.77 85.5178058,48.88 C85.1038058,48.98 84.7108058,49.03 84.3428058,49.03 C82.7838058,49.03 81.6478058,48.18 81.2068058,46.63 C80.3248058,43.51 82.4028058,41.2 84.8108058,38.53 C85.8018058,37.43 86.8238058,36.29 87.7308058,35.01 C90.7038058,30.78 90.6118058,25.48 90.6098058,25.42 C90.6048058,25.2 90.7858058,25.01 91.0118058,25 C91.2418058,25 91.4288058,25.18 91.4348058,25.4 C91.4408058,25.63 91.5398058,31.02 88.4048058,35.48" id="Fill-353" sketch:type="MSShapeGroup"></path>
            <path d="M90.3717572,30.6810526 C90.1857572,30.8910526 85.7527572,35.8710526 79.6687572,36.1810526 C75.0457572,36.4210526 73.6467572,34.5310526 73.2587572,33.7110526 C72.8227572,32.7810526 72.9447572,31.7410526 73.5717572,31.0610526 C74.4157572,30.1410526 75.4407572,30.3610526 76.1177572,30.8710526 C76.6707572,31.2810526 77.0997572,31.9910526 76.8047572,32.4810526 C76.7117572,32.6310526 76.5707572,32.7310526 76.4037572,32.7610526 C76.3727572,32.7610526 76.3427572,32.7710526 76.3117572,32.7710526 C76.0327572,32.7710526 75.7977572,32.5610526 75.5127572,32.3110526 C75.0937572,31.9510526 74.7277572,31.6610526 74.3347572,31.6610526 C74.2647572,31.6610526 74.1957572,31.6810526 74.1247572,31.7010526 C73.7877572,32.1310526 73.7307572,32.7710526 74.0057572,33.3610526 C74.6647572,34.7610526 76.7647572,35.5110526 79.6287572,35.3610526 C85.3587572,35.0610526 89.7107572,30.1910526 89.7527572,30.1410526 C89.9027572,29.9710526 90.1657572,29.9510526 90.3347572,30.1010526 C90.5047572,30.2510526 90.5227572,30.5110526 90.3717572,30.6810526" id="Fill-354" sketch:type="MSShapeGroup"></path>
            <path d="M80.2918596,22.2034537 C80.2918596,22.2034537 79.8788596,25.9134537 76.7848596,25.9134537 C77.1998596,23.2334537 76.3758596,21.9234537 74.4118596,22.0034537 C71.6288596,22.1034537 70.9088596,26.8434537 74.1058596,28.3934537 C77.7368596,30.1434537 82.1488596,25.1934537 80.2918596,22.2034537" id="Fill-355" sketch:type="MSShapeGroup"></path>
            <path d="M72.405,2 C72.405,2 81.703,5.26 82.51,10.04 C83.268,14.51 78.179,16.29 75.565,10.73 C78.112,10.8 79.553,9.63 77.561,7.02 C75.791,4.7 72.061,2.62 70,2.2 C71.513,2.2 72.405,2 72.405,2" id="Fill-356" sketch:type="MSShapeGroup"></path>
            <path d="M70.032,11.96 C69.462,11.96 69,11.52 69,10.98 C69,10.43 69.462,10 70.032,10 C70.6,10 71.062,10.43 71.062,10.98 C71.062,11.52 70.6,11.96 70.032,11.96" id="Fill-357" sketch:type="MSShapeGroup"></path>
            <path d="M66.494,15.89 C65.671,15.89 65,15.24 65,14.44 C65,13.65 65.671,13 66.494,13 C67.32,13 67.989,13.65 67.989,14.44 C67.989,15.24 67.32,15.89 66.494,15.89" id="Fill-358" sketch:type="MSShapeGroup"></path>
            <path d="M73.5766365,38.5369834 C73.4986365,38.7469834 73.2586365,38.8569834 73.0476365,38.7769834 C72.6516365,38.6269834 63.3316365,34.9969834 61.7576365,27.5469834 C61.1146365,24.5069834 61.4086365,21.5369834 61.6676365,18.9169834 C62.0406365,15.1269834 62.3116365,12.3969834 59.8186365,11.2269834 C58.6596365,10.6869834 57.6566365,10.6969834 56.9206365,11.2369834 C56.1326365,11.8269834 55.6956365,13.0169834 55.8586365,14.1469834 C55.8776365,14.2969834 55.9526365,14.4069834 55.9966365,14.5369834 C56.2476365,14.9869834 56.5896365,15.2069834 57.0356365,15.2069834 C57.3756365,15.2069834 57.7596365,15.1169834 58.1806365,15.0069834 L58.8616365,14.8769834 C59.1206365,14.8769834 59.3346365,15.0069834 59.4266365,15.2269834 C59.5396365,15.4869834 59.4496365,15.8069834 59.1946365,16.0769834 C58.9036365,16.3869834 58.4066365,16.6269834 57.7346365,16.6269834 C57.3856365,16.6269834 56.9896365,16.5669834 56.5516365,16.3969834 C56.0266365,16.2069834 55.6676365,15.7569834 55.4006365,15.2169834 C55.2786365,15.0469834 55.1606365,14.8569834 55.0716365,14.6069834 C55.0416365,14.5369834 55.0746365,14.4769834 55.0896365,14.3969834 C55.0796365,14.3469834 55.0476365,14.3169834 55.0396365,14.2669834 C54.8696365,13.0669834 55.2306365,11.4669834 56.4306365,10.5769834 C57.1216365,10.0669834 58.3356365,9.62698338 60.1686365,10.4869834 C63.1896365,11.8969834 62.8646365,15.1869834 62.4896365,19.0069834 C62.2366365,21.5569834 61.9486365,24.4669834 62.5656365,27.3769834 C64.0456365,34.3869834 73.2476365,37.9669834 73.3406365,38.0069834 C73.5516365,38.0869834 73.6606365,38.3269834 73.5766365,38.5369834" id="Fill-359" sketch:type="MSShapeGroup"></path>
            <path d="M81.3044202,38.0315484 C81.1734202,37.8515484 80.9154202,37.8015484 80.7294202,37.9315484 C80.6764202,37.9715484 75.2514202,41.6415484 67.2444202,37.1915484 C63.1554202,34.9215484 60.2734202,32.1815484 57.9534202,29.9715484 C55.4914202,27.6315484 53.7154202,25.9415484 51.7734202,26.0015484 C49.6984202,26.0615484 48.7794202,26.9115484 48.3744202,27.6015484 C47.8554202,28.5015484 47.8774202,29.6915484 48.4314202,30.7315484 C48.8924202,31.6015484 49.6554202,31.9515484 50.3334202,31.9515484 C50.4924202,31.9515484 50.6464202,31.9315484 50.7914202,31.8915484 C51.5194202,31.7115484 51.9904202,31.1415484 51.9904202,30.4315484 C51.9904202,30.0615484 52.1464202,29.5615484 52.5874202,29.3515484 C52.7044202,29.2915484 52.8684202,29.2415484 53.0914202,29.2415484 C53.6144202,29.2415484 54.4614202,29.5115484 55.7514202,30.5515484 C58.9334202,33.1115484 65.6274202,37.2415484 65.6954202,37.2815484 C65.7624202,37.3215484 65.8374202,37.3415484 65.9114202,37.3415484 L65.9234202,37.3415484 C66.2374202,37.5215484 66.5154202,37.7315484 66.8454202,37.9115484 C70.0394202,39.6915484 72.8324202,40.2415484 75.0854202,40.2415484 C78.8104202,40.2415484 81.0564202,38.7115484 81.2034202,38.6115484 C81.3894202,38.4815484 81.4334202,38.2215484 81.3044202,38.0315484" id="Fill-360" sketch:type="MSShapeGroup"></path>
            <path d="M71.8678908,39.0867268 C71.8248908,39.3067268 71.6088908,39.4567268 71.3848908,39.4067268 C71.0958908,39.3567268 64.2278908,37.9267268 58.0168908,27.9867268 C51.9218908,18.2267268 48.4328908,13.0867268 41.8008908,11.9867268 C38.6868908,11.4667268 35.8418908,12.1867268 33.7948908,14.0067268 C31.7408908,15.8267268 30.6878908,18.5467268 30.8368908,21.6667268 C31.3618908,25.9867268 34.7568908,27.8967268 37.8828908,27.8567268 C40.3348908,27.8267268 42.9348908,26.5367268 43.2118908,23.7067268 C43.4738908,21.0267268 42.5118908,19.2267268 40.6368908,18.8967268 C39.0488908,18.6167268 37.3518908,19.5367268 37.0078908,20.8567268 C36.9528908,21.0767268 36.7268908,21.2167268 36.5078908,21.1567268 C36.2898908,21.0967268 36.1548908,20.8767268 36.2118908,20.6567268 C36.6638908,18.9067268 38.7558908,17.7267268 40.7818908,18.0867268 C42.5918908,18.4067268 44.3988908,20.0767268 44.0328908,23.7867268 C43.7538908,26.6267268 41.2278908,28.6467268 37.8908908,28.6867268 C34.5088908,28.7167268 30.6018908,26.5667268 30.0148908,21.7367268 C29.8538908,18.3367268 31.0028908,15.3767268 33.2458908,13.3867268 C35.4828908,11.3967268 38.5718908,10.6167268 41.9378908,11.1767268 C48.9168908,12.3367268 52.4938908,17.5867268 58.7168908,27.5467268 C64.7218908,37.1567268 71.4728908,38.5867268 71.5428908,38.6067268 C71.7638908,38.6467268 71.9108908,38.8667268 71.8678908,39.0867268" id="Fill-361" sketch:type="MSShapeGroup"></path>
            <path d="M38.6839164,19.1252555 C38.6839164,19.1252555 37.1339164,20.1652555 39.1989164,22.4352555 C39.3009164,24.5952555 35.6919164,25.4252555 35.0729164,22.5352555 C34.4539164,19.6452555 37.9589164,18.6152555 38.6839164,19.1252555" id="Fill-362" sketch:type="MSShapeGroup"></path>
            <path d="M40.831995,11.6910071 C40.788995,11.9110071 40.571995,12.0610071 40.347995,12.0110071 C40.282995,12.0010071 33.697995,10.7710071 29.372995,15.0010071 C26.155995,18.1410071 23.319995,18.6310071 21.738995,18.0410071 C20.726995,17.6610071 20.097995,16.8310071 20.013995,15.7710071 C19.844995,13.6810071 21.235995,12.2910071 22.596995,11.8810071 C23.854995,11.4910071 25.042995,11.9210071 25.629995,12.9510071 C26.243995,14.0510071 25.570995,15.2010071 24.804995,15.8610071 C24.430995,16.1910071 23.905995,16.5110071 23.544995,16.2310071 C23.440995,16.1510071 23.225995,15.9110071 23.458995,15.4510071 L23.732995,15.0610071 C24.038995,14.6710071 24.548995,14.0210071 24.460995,13.4810071 C24.414995,13.2210071 24.236995,12.9910071 23.911995,12.7810071 C23.861995,12.7510071 23.864995,12.6910071 23.832995,12.6410071 C23.721995,12.6210071 23.613995,12.5610071 23.498995,12.5610071 C23.269995,12.5610071 23.044995,12.6010071 22.836995,12.6710071 C21.780995,12.9910071 20.705995,14.0710071 20.834995,15.7010071 C20.893995,16.4410071 21.317995,17.0010071 22.025995,17.2710071 C23.370995,17.7710071 25.851995,17.2810071 28.797995,14.4110071 C33.433995,9.88100708 40.218995,11.1510071 40.507995,11.2010071 C40.730995,11.2510071 40.875995,11.4710071 40.831995,11.6910071" id="Fill-363" sketch:type="MSShapeGroup"></path>
            <path d="M42.7307371,11.2746465 C42.7217371,11.1946465 42.4447371,9.29464649 39.0637371,8.95464649 C34.8017371,8.53464649 33.7837371,7.77464649 33.5427371,7.46464649 C33.4397371,7.32464649 33.4397371,7.23464649 33.4487371,7.15464649 C33.6107371,6.07464649 33.1587371,5.53464649 32.8737371,5.31464649 C32.4237371,4.96464649 31.7827371,4.90464649 31.1987371,5.14464649 C30.5437371,5.42464649 30.1027371,6.01464649 30.0187371,6.74464649 C29.9357371,7.46464649 30.1287371,8.08464649 30.5927371,8.60464649 C32.0007371,10.1846465 35.5917371,10.3946465 38.9187371,10.3946465 C41.3787371,10.3946465 41.4957371,11.2646465 41.4957371,11.2746465 C41.5167371,11.4846465 41.6977371,11.6646465 41.9087371,11.6646465 L41.9277371,11.6646465 C41.9727371,11.6546465 42.0007371,11.6246465 42.0407371,11.6146465 C42.1157371,11.6846465 42.2117371,11.7346465 42.3237371,11.7346465 L42.3817371,11.7346465 C42.6017371,11.7046465 42.7587371,11.4946465 42.7307371,11.2746465" id="Fill-364" sketch:type="MSShapeGroup"></path>
            <path d="M60.4656655,2.23203771 C60.4656655,2.23203771 49.6046655,2.09203771 52.7656655,8.42203771 C48.0906655,10.6220377 45.4786655,5.26203771 51.5276655,2.09203771 C54.2766655,1.82203771 60.4656655,2.23203771 60.4656655,2.23203771" id="Fill-365" sketch:type="MSShapeGroup"></path>
            <path d="M48.533,2 C48.533,2 42.758,4.06 40.971,5.71 C38.637,3.51 33,2 33,2 L48.533,2" id="Fill-366" sketch:type="MSShapeGroup"></path>
        </g>
    </g>
</svg>